# Blender v2.91.2 OBJ File: 'buildings.blend'
# www.blender.org
o Circle.001
v -1.000000 1.551911 0.000000
v -2.343994 0.775955 0.000000
v -2.343994 -0.775956 0.000000
v -1.000000 -1.551911 0.000000
v 0.360430 -0.943018 0.000000
v 0.360430 0.943018 0.000000
v -1.000000 1.551911 0.252533
v -2.343994 0.775955 0.252533
v -2.343994 -0.775956 0.252533
v -1.000000 -1.551911 0.252533
v 0.360430 -0.943018 0.252533
v 0.360430 0.943018 0.252533
v -1.000000 1.253869 0.252533
v -1.811090 0.788648 0.252533
v -1.811090 -0.788648 0.252533
v -1.000000 -1.253869 0.252533
v 0.360430 -0.720616 0.252533
v 0.360430 0.720616 0.252533
v -1.261222 -0.208978 0.252533
v -1.261222 0.208978 0.252533
v -2.343994 0.775955 0.551289
v -1.000000 1.551911 0.551289
v -1.000000 -1.551911 0.551289
v -2.343994 -0.775956 0.551289
v 0.360430 -0.943018 0.551289
v 0.360430 0.943018 0.551289
v -1.811090 0.788648 0.923901
v -1.000000 1.253869 0.923901
v -1.000000 -1.253869 0.923901
v -1.811090 -0.788648 0.923901
v 0.360430 -0.720616 0.923901
v 0.360430 0.720616 0.923901
v -1.261222 0.208978 0.923901
v -1.261222 -0.208978 0.923901
v -2.343994 0.775955 1.149482
v -1.000000 1.551911 1.149482
v -1.000000 -1.551911 1.149482
v -2.343994 -0.775956 1.149482
v 0.360430 -0.943018 1.149482
v 0.360430 0.943018 1.149482
v -1.811090 0.788648 1.149482
v -1.000000 1.253869 1.149482
v -1.000000 -1.253869 1.149482
v -1.811090 -0.788648 1.149482
v 0.360430 -0.720616 1.149482
v 0.360430 0.720616 1.149482
v -1.261222 0.208978 1.149482
v -1.261222 -0.208978 1.149482
v 1.528888 0.260589 0.000000
v 1.528888 -0.260589 0.000000
v 1.528888 0.260589 0.252533
v 1.528888 -0.260589 0.252533
v 1.528888 0.210543 0.252533
v 1.528888 -0.210543 0.252533
vt 0.000000 0.000000
vt 0.000000 0.000000
vt 0.000000 0.000000
vt 0.000000 0.000000
vt 0.000000 0.000000
vt 0.000000 0.000000
vt 0.000000 0.000000
vt 0.000000 0.000000
vt 0.000000 0.000000
vt 0.000000 0.000000
vt 0.000000 0.000000
vt 0.000000 0.000000
vt 0.000000 0.000000
vt 0.000000 0.000000
vt 0.000000 0.000000
vt 0.000000 0.000000
vt 0.000000 0.000000
vt 0.000000 0.000000
vt 0.000000 0.000000
vt 0.000000 0.000000
vt 0.000000 0.000000
vt 0.000000 0.000000
vt 0.000000 0.000000
vt 0.000000 0.000000
vt 0.000000 0.000000
vt 0.000000 0.000000
vt 0.000000 0.000000
vt 0.000000 0.000000
vt 0.000000 0.000000
vt 0.000000 0.000000
vt 0.000000 0.000000
vt 0.000000 0.000000
vt 0.000000 0.000000
vt 0.000000 0.000000
vt 0.000000 0.000000
vt 0.000000 0.000000
vt 0.000000 0.000000
vt 0.000000 0.000000
vt 0.000000 0.000000
vt 0.000000 0.000000
vt 0.000000 0.000000
vt 0.000000 0.000000
vt 0.000000 0.000000
vt 0.000000 0.000000
vt 0.000000 0.000000
vt 0.000000 0.000000
vt 0.000000 0.000000
vt 0.000000 0.000000
vt 0.000000 0.000000
vt 0.000000 0.000000
vt 0.000000 0.000000
vt 0.000000 0.000000
vt 0.000000 0.000000
vt 0.000000 0.000000
vn 0.0000 0.0000 -1.0000
vn 0.4975 0.8674 0.0000
vn -0.5000 -0.8660 0.0000
vn -0.5000 0.8660 0.0000
vn 0.4085 0.9127 0.0000
vn 0.4085 -0.9127 0.0000
vn -1.0000 0.0000 0.0000
vn 0.5043 0.8635 0.0000
vn 0.0000 0.0000 1.0000
vn 1.0000 0.0000 0.0000
vn 0.4975 -0.8674 0.0000
vn 0.0238 -0.9997 0.0000
vn 0.0238 0.9997 0.0000
vn -0.3649 0.9310 0.0000
vn -0.3649 -0.9310 0.0000
vn -0.7255 -0.6882 0.0000
vn -0.7255 0.6882 0.0000
vn 0.5043 -0.8635 0.0000
s off
f 4/1/1 3/2/1 1/3/1
f 15/4/2 29/5/2 16/6/2
f 4/1/3 9/7/3 3/2/3
f 2/8/4 7/9/4 1/3/4
f 1/3/5 12/10/5 6/11/5
f 5/12/6 10/13/6 4/1/6
f 3/2/7 8/14/7 2/8/7
f 12/10/8 49/15/8 6/11/8
f 19/16/9 16/6/9 17/17/9
f 7/9/5 26/18/5 12/10/5
f 19/16/9 20/19/9 8/14/9
f 49/15/10 53/20/10 54/21/10
f 13/22/11 27/23/11 14/24/11
f 17/17/10 25/25/10 11/26/10
f 31/27/10 39/28/10 25/25/10
f 22/29/5 40/30/5 26/18/5
f 27/23/12 35/31/12 21/32/12
f 34/33/7 47/34/7 33/35/7
f 15/4/13 24/36/13 30/37/13
f 16/6/14 31/27/14 17/17/14
f 14/24/12 21/32/12 8/14/12
f 8/14/4 22/29/4 7/9/4
f 18/38/15 28/39/15 13/22/15
f 10/13/3 24/36/3 9/7/3
f 34/33/1 33/35/1 32/40/1
f 11/26/6 23/41/6 10/13/6
f 18/38/10 26/18/10 32/40/10
f 32/40/10 40/30/10 46/42/10
f 40/30/9 42/43/9 46/42/9
f 39/28/9 43/44/9 37/45/9
f 37/45/9 44/46/9 38/47/9
f 36/48/9 41/49/9 42/43/9
f 48/50/9 43/44/9 45/51/9
f 21/32/4 36/48/4 22/29/4
f 33/35/16 41/49/16 27/23/16
f 23/41/3 38/47/3 24/36/3
f 30/37/17 48/50/17 34/33/17
f 32/40/10 45/51/10 31/27/10
f 30/37/13 38/47/13 44/46/13
f 25/25/6 37/45/6 23/41/6
f 17/17/9 52/52/9 54/21/9
f 17/17/9 53/20/9 18/38/9
f 5/12/18 52/52/18 11/26/18
f 6/11/1 50/53/1 5/12/1
f 18/38/9 51/54/9 12/10/9
f 3/2/1 2/8/1 1/3/1
f 1/3/1 6/11/1 5/12/1
f 5/12/1 4/1/1 1/3/1
f 15/4/2 30/37/2 29/5/2
f 4/1/3 10/13/3 9/7/3
f 2/8/4 8/14/4 7/9/4
f 1/3/5 7/9/5 12/10/5
f 5/12/6 11/26/6 10/13/6
f 3/2/7 9/7/7 8/14/7
f 12/10/8 51/54/8 49/15/8
f 13/22/9 14/24/9 20/19/9
f 19/16/9 15/4/9 16/6/9
f 13/22/9 20/19/9 18/38/9
f 20/19/9 19/16/9 18/38/9
f 17/17/9 18/38/9 19/16/9
f 7/9/5 22/29/5 26/18/5
f 14/24/9 8/14/9 20/19/9
f 8/14/9 9/7/9 19/16/9
f 9/7/9 15/4/9 19/16/9
f 52/52/10 50/53/10 54/21/10
f 50/53/10 49/15/10 54/21/10
f 49/15/10 51/54/10 53/20/10
f 13/22/11 28/39/11 27/23/11
f 17/17/10 31/27/10 25/25/10
f 31/27/10 45/51/10 39/28/10
f 22/29/5 36/48/5 40/30/5
f 27/23/12 41/49/12 35/31/12
f 34/33/7 48/50/7 47/34/7
f 15/4/13 9/7/13 24/36/13
f 16/6/14 29/5/14 31/27/14
f 14/24/12 27/23/12 21/32/12
f 8/14/4 21/32/4 22/29/4
f 18/38/15 32/40/15 28/39/15
f 10/13/3 23/41/3 24/36/3
f 33/35/1 27/23/1 28/39/1
f 28/39/1 32/40/1 33/35/1
f 32/40/1 31/27/1 34/33/1
f 31/27/1 29/5/1 34/33/1
f 29/5/1 30/37/1 34/33/1
f 11/26/6 25/25/6 23/41/6
f 18/38/10 12/10/10 26/18/10
f 32/40/10 26/18/10 40/30/10
f 40/30/9 36/48/9 42/43/9
f 39/28/9 45/51/9 43/44/9
f 37/45/9 43/44/9 44/46/9
f 36/48/9 35/31/9 41/49/9
f 42/43/9 41/49/9 47/34/9
f 48/50/9 44/46/9 43/44/9
f 42/43/9 47/34/9 46/42/9
f 47/34/9 48/50/9 46/42/9
f 45/51/9 46/42/9 48/50/9
f 21/32/4 35/31/4 36/48/4
f 33/35/16 47/34/16 41/49/16
f 23/41/3 37/45/3 38/47/3
f 30/37/17 44/46/17 48/50/17
f 32/40/10 46/42/10 45/51/10
f 30/37/13 24/36/13 38/47/13
f 25/25/6 39/28/6 37/45/6
f 17/17/9 11/26/9 52/52/9
f 17/17/9 54/21/9 53/20/9
f 5/12/18 50/53/18 52/52/18
f 6/11/1 49/15/1 50/53/1
f 18/38/9 53/20/9 51/54/9
